<svg width="877" height="152" viewBox="0 0 877 152" fill="none" xmlns="http://www.w3.org/2000/svg">
<path d="M127.823 136H151.836V112.635H165.076C188.44 112.635 201.031 98.8764 201.031 78.8868C201.031 58.8971 188.44 45.138 165.076 45.138H127.823V136ZM163.129 67.4641C171.177 67.4641 175.72 71.7476 175.72 78.8868C175.72 86.0259 171.177 90.3094 163.129 90.3094H151.836V67.4641H163.129ZM228.901 136H252.915V101.343H282.121V136H306.134V45.138H282.121V79.0166H252.915V45.138H228.901V136ZM330.132 136H355.055L359.987 122.241H392.048L396.851 136H422.682L387.765 45.138H365.049L330.132 136ZM367.516 101.472L376.212 77.0695L384.779 101.472H367.516ZM446.651 136H470.664V106.145H477.674L493.639 136H521.807L501.298 103.16C512.591 98.6168 518.561 88.7518 518.561 76.2907C518.561 57.8587 506.749 45.138 484.553 45.138H446.651V136ZM482.606 67.4641C489.486 67.4641 493.25 70.7092 493.25 76.2907C493.25 81.7424 489.486 85.1173 482.606 85.1173H470.664V67.4641H482.606ZM543.171 90.569C543.171 118.087 562.252 137.947 589.77 137.947C602.102 137.947 613.654 132.625 620.793 125.746L606.385 106.924C601.582 111.078 595.482 113.674 589.121 113.674C576.92 113.674 568.483 104.198 568.483 90.569C568.483 76.9397 577.18 67.4641 589.77 67.4641C595.871 67.4641 601.193 69.9304 605.347 73.9543L620.144 55.3925C613.395 48.5129 601.972 43.191 588.992 43.191C562.512 43.191 543.171 63.1806 543.171 90.569ZM647.414 136H671.428V45.138H647.414V136ZM721.756 136H745.769V67.4641H768.874V45.138H698.651V67.4641H721.756V136ZM819.314 136H843.327V101.213L876.946 45.138H849.817L831.515 78.4974L813.732 45.138H785.695L819.314 101.213V136Z" fill="#467C7C"/>
<g clip-path="url(#clip0)">
<path d="M7.21741 67.4748C9.07278 64.4188 11.3782 61.7269 13.9622 59.2728C20.035 53.5055 27.238 49.8121 35.3557 47.9258C39.4788 46.9749 43.7202 46.6391 47.9418 46.9293C55.3358 47.4146 62.2149 49.6035 68.5857 53.389C69.0714 53.6786 69.298 53.9779 69.2948 54.578C69.2657 59.2145 69.2786 63.8494 69.2786 68.4907V69.2996C68.0789 68.2642 67.012 67.2936 65.8917 66.3876C60.9896 62.3787 55.0005 59.9248 48.693 59.3407C39.8662 58.4639 31.823 60.6074 24.7609 66.022C18.7382 70.6407 14.7749 76.6847 12.7657 84.0034L12.552 84.7783C12.28 84.6084 12.2039 84.3091 12.076 84.047C10.61 81.0582 9.43613 77.935 8.57089 74.7207C7.93624 72.3475 7.38902 69.9419 7.21741 67.4748Z" fill="#467C7C"/>
<path d="M11.6179 92.042C11.7426 95.2419 12.0211 98.4176 12.9229 101.512C14.8657 108.183 18.51 113.737 23.856 118.175C28.1318 121.715 32.9888 124.13 38.448 125.132C49.9851 127.249 60.0682 124.24 68.6262 116.2C68.7962 116.038 68.9646 115.876 69.2625 115.595V116.517C69.2625 120.751 69.2625 124.984 69.2625 129.215C69.2625 129.65 69.1816 129.933 68.7622 130.185C60.9888 134.936 51.9574 137.221 42.8582 136.741C33.2251 136.255 24.6525 132.983 17.0724 127.091C11.9838 123.137 7.99786 118.242 5.01404 112.531C4.92856 112.337 4.85661 112.138 4.79871 111.934C4.86138 111.851 4.90905 111.758 4.93956 111.659C5.33334 108.39 6.05471 105.169 7.09283 102.045C8.25203 98.5535 9.67514 95.1788 11.6179 92.042Z" fill="#467C7C"/>
<path d="M62.1583 81.4894C64.1011 83.7138 65.5096 86.2553 66.6721 88.9521C68.0709 92.2005 68.8464 95.6027 69.1912 99.1148C69.2414 99.6163 69.0115 99.7619 68.5533 99.8218C65.618 100.228 62.6412 100.236 59.7039 99.8444C55.0077 99.2385 50.5213 97.5318 46.611 94.8634C39.3886 89.9632 34.9024 83.1735 33.0357 74.6706C32.7378 73.3181 32.4415 71.9398 32.5176 70.5291C32.9644 70.7718 33.1539 71.2474 33.489 71.5936C35.6228 73.8034 37.9429 75.782 40.5851 77.3754C44.7571 79.8929 49.4555 81.4116 54.3126 81.8129C56.9307 82.0515 59.5688 81.9427 62.1583 81.4894Z" fill="#467C7C"/>
<path d="M72.3435 127.9V56.0713C73.5697 56.9323 74.7255 57.8892 75.8001 58.9331C76.0073 59.1256 75.8891 59.4491 75.8891 59.7112C75.8891 65.6678 75.8891 71.6254 75.8891 77.5842V78.6147C76.7823 77.2235 77.8571 75.9576 79.085 74.8501C82.2648 71.8316 86.3921 70.0059 90.7661 69.683C92.1356 69.5924 93.5096 69.5973 94.8784 69.6976C95.547 69.7332 95.7106 69.9645 95.6361 70.5696C95.1277 74.6447 93.5638 78.2458 90.8698 81.36C87.8115 84.898 83.9194 86.9445 79.3748 87.8003C78.5268 87.9464 77.6676 88.0184 76.8071 88.0154C76.0964 88.0154 75.8746 88.2419 75.8762 88.9861C75.9037 100.684 75.8907 112.384 75.9086 124.091C75.9086 124.709 75.7467 125.13 75.2609 125.53C74.3219 126.282 73.4541 127.12 72.3435 127.9Z" fill="#467C7C"/>
<path d="M10.5754 93.8296C7.64266 99.3884 5.73579 105.43 4.94614 111.664C4.91563 111.763 4.86796 111.856 4.80529 111.939C3.51819 109.74 2.67955 107.351 1.92509 104.937C0.98507 101.979 0.387535 98.9232 0.144188 95.8292C-0.375512 88.7935 0.477699 81.944 3.12639 75.363C4.21187 72.598 5.58303 69.9538 7.21761 67.4732C7.38922 69.9419 7.93645 72.3475 8.57433 74.7207C9.43958 77.935 10.6134 81.0583 12.0795 84.0471C12.2074 84.3091 12.2835 84.6084 12.5555 84.7783C11.9726 87.1645 11.7945 89.6008 11.6148 92.0388C11.2505 92.6276 10.9057 93.2246 10.5754 93.8296Z" fill="#467C7C"/>
<path d="M62.1584 81.4894C59.5689 81.9427 56.9307 82.0515 54.3127 81.8129C49.4555 81.4117 44.7572 79.8929 40.5852 77.3754C37.9429 75.782 35.6229 73.8035 33.4891 71.5936C33.1539 71.2474 32.9645 70.7718 32.5177 70.5291C32.3752 69.95 32.7961 69.95 33.1653 69.882C34.4961 69.6183 35.848 69.6588 37.1869 69.6361C42.4129 69.5207 47.5812 70.7461 52.1983 73.1952C55.9448 75.1731 59.261 77.8746 61.9544 81.1432C62.0327 81.2522 62.101 81.3681 62.1584 81.4894Z" fill="#467C7C"/>
</g>
<defs>
<clipPath id="clip0">
<rect y="46.8322" width="95.6555" height="89.973" fill="white"/>
</clipPath>
</defs>
</svg>
